<?xml version="1.0" standalone="no"?>
<!DOCTYPE svg PUBLIC "-//W3C//DTD SVG 20010904//EN"
 "http://www.w3.org/TR/2001/REC-SVG-20010904/DTD/svg10.dtd">
<svg version="1.0" xmlns="http://www.w3.org/2000/svg"
 width="400.000000pt" height="400.000000pt" viewBox="0 0 400.000000 400.000000"
 preserveAspectRatio="xMidYMid meet">
<metadata>
Created by potrace 1.14, written by Peter Selinger 2001-2017
</metadata>
<g transform="translate(0.000000,400.000000) scale(0.100000,-0.100000)"
fill="#000000" stroke="none">
<path d="M2486 3969 c-89 -47 -246 -178 -246 -204 0 -5 15 6 33 26 37 42 134
117 215 165 61 37 60 45 -2 13z"/>
<path d="M2613 3949 c-35 -22 -66 -45 -69 -51 -8 -13 -6 -12 80 44 67 43 73
48 60 48 -5 0 -37 -18 -71 -41z"/>
<path d="M2509 3873 c-13 -16 -12 -17 4 -4 9 7 17 15 17 17 0 8 -8 3 -21 -13z"/>
<path d="M2733 3866 c-91 -34 -139 -76 -158 -139 -8 -28 -15 -59 -15 -68 0
-28 -18 -32 -48 -13 -41 28 -65 40 -127 63 -64 24 -69 25 -60 11 3 -5 15 -10
25 -10 37 0 196 -91 260 -149 68 -62 73 -81 15 -64 -19 6 -35 8 -35 3 0 -13
69 -42 82 -34 7 5 9 2 6 -8 -4 -8 -2 -21 2 -28 5 -8 8 20 7 66 -1 87 7 108 68
188 19 25 32 46 27 46 -15 -1 -112 -136 -112 -157 0 -33 -12 -34 -48 -2 -25
23 -28 29 -15 30 12 0 8 4 -9 11 -20 7 -28 17 -28 34 0 43 38 126 72 156 37
32 98 62 107 52 3 -4 0 -9 -6 -11 -13 -5 -64 -75 -87 -121 -19 -39 -30 -90
-16 -76 6 6 12 20 14 31 6 31 25 60 89 141 31 39 56 72 55 71 -2 0 -31 -10
-65 -23z"/>
<path d="M2460 3830 c-11 -11 -24 -20 -30 -20 -5 0 -10 -4 -10 -8 0 -5 -6 -9
-12 -9 -16 -1 -107 -42 -94 -43 34 -1 120 38 148 67 17 18 29 33 25 33 -4 0
-16 -9 -27 -20z"/>
<path d="M2905 3793 c-41 -10 -33 -19 16 -18 44 0 54 -4 71 -26 11 -15 21 -38
21 -51 2 -18 7 -24 19 -20 15 4 15 6 3 19 -8 8 -15 21 -15 28 0 40 -68 80
-115 68z"/>
<path d="M3596 3781 c-17 -6 -17 -8 -3 -14 8 -3 21 1 27 9 13 15 6 17 -24 5z"/>
<path d="M2819 3749 l-24 -20 30 17 c39 24 40 24 28 24 -6 0 -21 -9 -34 -21z"/>
<path d="M2190 3739 c-27 -5 -17 -7 39 -8 41 0 72 1 70 3 -10 8 -77 12 -109 5z"/>
<path d="M3468 3743 c7 -3 16 -2 19 1 4 3 -2 6 -13 5 -11 0 -14 -3 -6 -6z"/>
<path d="M3520 3673 c-56 -57 -61 -64 -20 -28 51 47 106 105 98 105 -2 0 -37
-35 -78 -77z"/>
<path d="M3378 3733 c6 -2 18 -2 25 0 6 3 1 5 -13 5 -14 0 -19 -2 -12 -5z"/>
<path d="M1867 3715 c40 -8 89 -19 108 -27 24 -8 38 -9 43 -2 4 5 30 17 57 26
38 13 44 17 23 17 -15 1 -29 -3 -32 -8 -10 -16 -80 -18 -146 -5 -36 8 -78 13
-95 13 -16 -1 3 -7 42 -14z"/>
<path d="M3149 3720 c-30 -4 -64 -12 -75 -19 -17 -11 -17 -12 6 -6 14 3 51 10
84 15 32 5 61 11 64 14 6 7 0 6 -79 -4z"/>
<path d="M1932 3640 c-20 -19 -27 -30 -19 -30 9 0 50 41 45 45 -2 3 -14 -4
-26 -15z"/>
<path d="M3409 3563 l-24 -28 28 24 c25 23 32 31 24 31 -2 0 -14 -12 -28 -27z"/>
<path d="M3313 3482 c-35 -32 -63 -62 -63 -67 0 -5 29 20 65 55 60 59 70 70
63 70 -2 0 -31 -26 -65 -58z"/>
<path d="M2554 3515 c8 -8 18 -15 22 -15 3 0 1 7 -6 15 -7 8 -17 15 -22 15 -5
0 -3 -7 6 -15z"/>
<path d="M2711 3376 c-2 -20 50 -75 69 -73 26 2 25 6 -5 17 -14 5 -25 16 -25
25 0 8 -6 15 -14 15 -8 0 -17 6 -19 13 -3 6 -6 8 -6 3z"/>
<path d="M1445 3351 c-11 -5 -40 -31 -65 -58 -66 -72 -90 -105 -42 -56 23 23
58 54 79 70 68 50 76 63 28 44z"/>
<path d="M3240 3356 c0 -15 58 -111 85 -140 14 -15 25 -30 25 -33 0 -11 42
-74 47 -70 6 6 -35 75 -74 124 -19 23 -45 62 -58 85 -14 24 -25 39 -25 34z"/>
<path d="M2430 3297 c24 -26 49 -47 54 -47 13 0 -32 47 -69 73 -23 15 -20 9
15 -26z"/>
<path d="M1068 3301 c-63 -31 -170 -102 -164 -108 2 -2 33 16 69 40 35 24 85
52 111 62 25 10 46 22 46 26 0 11 6 13 -62 -20z"/>
<path d="M2725 3300 c3 -5 8 -10 11 -10 2 0 4 5 4 10 0 6 -5 10 -11 10 -5 0
-7 -4 -4 -10z"/>
<path d="M2760 3256 c0 -3 15 -13 33 -22 17 -9 48 -31 67 -48 19 -17 67 -52
105 -78 39 -26 86 -61 105 -78 19 -17 76 -64 126 -105 86 -70 233 -200 244
-216 16 -23 138 -94 147 -85 3 3 -7 10 -23 16 -38 15 -100 65 -219 180 -55 53
-137 127 -183 163 -45 37 -76 67 -69 67 8 0 26 -9 40 -20 14 -11 32 -20 41
-20 17 0 127 -54 186 -91 l35 -23 -28 31 c-25 26 -218 133 -241 133 -4 0 -40
14 -79 31 -85 37 -159 84 -204 128 -18 17 -37 31 -42 31 -5 0 -16 3 -25 6 -9
3 -16 4 -16 0z"/>
<path d="M2500 3243 c0 -5 9 -18 20 -28 11 -10 20 -16 20 -13 0 3 -9 15 -20
28 -11 13 -20 19 -20 13z"/>
<path d="M1065 3192 c-11 -9 -40 -51 -64 -92 -46 -77 -94 -141 -145 -195 -46
-48 -169 -204 -218 -277 -67 -98 -175 -328 -155 -328 2 0 16 32 31 70 26 67
131 250 177 308 161 210 219 278 219 260 0 -3 -13 -34 -29 -69 -56 -124 -41
-112 27 21 37 74 87 164 110 200 38 60 73 120 69 120 -1 -1 -11 -8 -22 -18z"/>
<path d="M2490 3196 c0 -15 53 -106 61 -106 16 0 123 -233 164 -355 20 -60 45
-159 56 -220 11 -60 24 -128 30 -150 14 -55 28 -134 31 -170 1 -16 6 -33 10
-36 5 -3 13 -28 18 -55 5 -27 16 -78 25 -114 14 -52 16 -98 13 -227 -3 -90 -1
-163 4 -163 4 0 8 -6 8 -14 0 -7 7 -19 15 -26 14 -11 14 -10 6 14 -6 14 -9 26
-6 26 8 0 34 -63 29 -71 -3 -5 -2 -9 3 -9 4 0 15 -15 22 -32 12 -27 60 -97 81
-118 3 -3 17 -21 31 -40 41 -55 100 -110 144 -132 62 -32 227 -86 359 -118
151 -35 177 -39 304 -44 83 -4 102 -2 102 9 0 8 -6 12 -13 9 -7 -2 -23 10 -36
27 l-24 32 -18 -24 c-17 -23 -17 -23 -39 -4 -23 21 -66 96 -87 153 -7 18 -21
45 -31 60 -11 15 -22 39 -26 55 -4 18 -24 39 -61 63 -30 20 -52 40 -50 44 3 5
24 11 48 15 122 20 337 95 337 118 0 4 -3 6 -7 4 -46 -24 -113 -50 -146 -56
-23 -5 -78 -18 -122 -29 -136 -35 -148 -36 -217 -13 -35 11 -87 26 -115 32
-29 6 -53 15 -53 20 0 5 5 9 10 9 6 0 10 5 10 10 0 6 11 27 25 48 49 74 66
147 63 267 -2 102 -4 114 -35 175 -34 66 -38 80 -25 80 7 0 65 -46 104 -82 10
-10 21 -18 26 -18 4 0 21 -13 37 -28 17 -15 46 -39 65 -52 19 -13 37 -27 40
-30 14 -15 245 -130 262 -130 8 0 19 -5 25 -11 6 -6 21 -9 34 -7 20 4 17 6
-17 16 -54 16 -214 99 -296 155 -75 51 -253 190 -263 206 -8 15 -26 14 -22 0
5 -27 -20 -17 -35 13 -9 18 -40 60 -70 93 -70 78 -146 176 -188 245 -19 30
-59 87 -88 125 -53 69 -74 94 -156 185 -23 25 -59 68 -81 94 -26 33 -57 57
-92 72 -40 18 -54 30 -59 51 -7 27 -28 57 -79 116 -14 15 -25 32 -25 37 0 6
-4 10 -10 10 -5 0 -10 -2 -10 -4z m215 -248 c39 -26 45 -39 15 -31 -11 3 -20
0 -20 -6 0 -6 6 -11 13 -11 15 -1 67 -46 67 -58 0 -5 9 -12 21 -15 12 -3 18
-10 15 -16 -4 -5 -2 -12 4 -16 6 -4 7 -11 4 -17 -4 -6 -10 -5 -16 3 -8 11 -9
10 -4 -4 5 -17 -22 -87 -33 -87 -7 0 -26 43 -36 80 -10 39 -27 79 -57 138 -16
30 -28 56 -28 58 0 10 23 2 55 -18z m196 -230 c7 -13 5 -28 -7 -50 l-16 -33
26 29 c28 31 33 28 14 -7 -10 -20 -10 -21 6 -8 15 13 21 10 52 -24 19 -21 32
-40 29 -43 -3 -3 -12 3 -20 14 -8 10 -15 14 -15 8 0 -16 35 -45 44 -37 4 4 4
0 0 -10 -4 -11 -1 -17 9 -17 8 0 18 -11 21 -25 4 -14 10 -23 15 -20 10 5 19
-14 31 -63 6 -24 5 -32 -3 -29 -7 2 -11 17 -9 33 3 23 1 26 -9 17 -10 -10 -15
-9 -26 5 -14 16 -14 16 -9 0 3 -10 2 -18 -3 -18 -5 0 -11 -9 -14 -20 -3 -12
-14 -20 -26 -20 -12 0 -21 -4 -21 -10 0 -5 -5 -10 -11 -10 -6 0 -9 5 -7 12 2
6 -14 31 -36 55 -23 25 -42 50 -42 56 -1 7 -3 23 -4 37 -1 21 -3 22 -9 7 -6
-15 -9 -13 -24 17 -9 20 -23 36 -32 36 -17 0 -18 2 -9 24 3 9 14 16 23 16 14
1 14 2 -1 11 -26 15 -22 29 13 41 28 10 30 13 24 45 -6 33 -6 34 15 16 12 -10
26 -26 31 -35z m-46 -218 c3 -5 1 -10 -4 -10 -6 0 -11 5 -11 10 0 6 2 10 4 10
3 0 8 -4 11 -10z m54 -102 c45 -95 49 -143 16 -217 -39 -87 -52 -94 -60 -34
-3 26 -17 102 -31 168 -13 66 -24 126 -24 133 0 7 14 12 34 12 33 0 37 -4 65
-62z m151 22 c0 -5 -4 -10 -10 -10 -5 0 -10 5 -10 10 0 6 5 10 10 10 6 0 10
-4 10 -10z m74 -44 c-4 -17 -3 -18 5 -6 5 8 11 12 13 10 39 -53 65 -87 75
-100 130 -150 160 -200 184 -294 14 -56 6 -263 -10 -279 -6 -6 -11 -20 -11
-31 0 -12 -14 -36 -31 -54 -27 -30 -33 -33 -60 -23 -18 6 -29 6 -29 0 0 -5 -7
-9 -16 -9 -12 0 -15 6 -10 23 23 78 26 132 16 232 -6 58 -17 120 -24 138 -8
18 -29 68 -47 112 -18 44 -36 85 -39 90 -4 6 -22 37 -40 69 l-32 59 18 59 c17
51 21 56 32 41 6 -9 10 -26 6 -37z m-70 -18 c-4 -18 -6 -41 -5 -52 2 -11 -2
-16 -8 -12 -14 9 -14 61 0 88 15 28 22 15 13 -24z m-61 -75 l17 -38 -6 38 c-4
24 -2 37 5 37 14 0 14 -110 0 -130 -8 -12 -9 -9 -5 12 3 15 2 30 -4 33 -5 3
-11 0 -11 -7 -5 -49 -7 -59 -12 -64 -3 -3 -7 31 -9 75 -2 45 -1 81 2 81 3 0
13 -17 23 -37z m147 -155 c28 -62 25 -74 -11 -34 -28 32 -49 81 -49 115 0 20
37 -30 60 -81z m-200 -29 c0 -4 -9 -10 -20 -14 -15 -5 -18 -13 -14 -38 l5 -32
-14 35 c-11 30 -11 39 1 58 11 17 18 20 28 11 8 -6 14 -15 14 -20z m281 -455
c-12 -52 -23 -65 -36 -44 -3 6 3 22 14 36 12 15 21 41 22 58 0 17 3 25 6 17 3
-7 0 -38 -6 -67z m69 -58 c0 -2 -7 -6 -15 -10 -8 -3 -15 -1 -15 4 0 6 7 10 15
10 8 0 15 -2 15 -4z m-53 -53 c-3 -10 -5 -2 -5 17 0 19 2 27 5 18 2 -10 2 -26
0 -35z m-19 -8 c0 -14 -4 -25 -9 -25 -10 0 -11 12 -3 34 9 22 12 20 12 -9z
m-34 -60 c-10 -9 -32 -23 -49 -32 -26 -14 -25 -12 10 23 22 22 44 36 49 32 6
-5 2 -14 -10 -23z"/>
<path d="M2744 2815 c11 -8 22 -12 25 -9 6 6 -19 24 -34 24 -5 -1 -1 -7 9 -15z"/>
<path d="M3055 2470 c3 -5 8 -10 11 -10 2 0 4 5 4 10 0 6 -5 10 -11 10 -5 0
-7 -4 -4 -10z"/>
<path d="M839 3143 l-24 -28 28 24 c25 23 32 31 24 31 -2 0 -14 -12 -28 -27z"/>
<path d="M1140 3081 c-6 -12 -7 -21 -1 -21 10 0 24 30 17 37 -2 3 -9 -5 -16
-16z"/>
<path d="M3415 3070 c9 -16 18 -30 21 -30 2 0 -2 14 -11 30 -9 17 -18 30 -21
30 -2 0 2 -13 11 -30z"/>
<path d="M1121 3034 c0 -11 3 -14 6 -6 3 7 2 16 -1 19 -3 4 -6 -2 -5 -13z"/>
<path d="M3451 3005 c1 -19 18 -51 18 -35 0 8 -4 22 -9 30 -5 8 -9 11 -9 5z"/>
<path d="M668 2938 c-22 -34 -42 -74 -31 -63 14 15 55 85 50 85 -3 0 -11 -10
-19 -22z"/>
<path d="M3471 2940 c0 -8 6 -26 14 -40 8 -14 14 -19 14 -10 0 8 -6 26 -14 40
-8 14 -14 19 -14 10z"/>
<path d="M1824 2895 c24 -119 33 -406 19 -583 -6 -79 -7 -82 -19 -54 -7 17
-22 70 -34 119 -24 99 -103 342 -126 388 -14 29 -15 28 -10 -35 2 -36 9 -164
15 -285 6 -121 15 -239 21 -262 14 -58 12 -73 -6 -40 -26 47 -24 29 3 -30 14
-32 27 -59 28 -61 3 -4 -3 85 -19 255 -8 89 -12 170 -10 180 3 10 -2 68 -10
128 -8 61 -13 111 -11 113 6 7 106 -329 132 -446 3 -13 19 -47 34 -75 l29 -52
-2 55 c-4 126 2 190 16 190 8 0 42 25 75 55 34 32 62 51 66 45 9 -15 25 -12
19 4 -3 9 4 15 21 18 14 3 27 3 29 -1 2 -3 5 -33 7 -65 5 -70 -13 -86 -37 -34
-14 31 -13 16 3 -34 3 -10 0 -18 -5 -18 -6 0 -33 -13 -59 -30 -79 -50 -48 -39
97 37 14 7 23 18 22 25 -2 7 -8 54 -13 103 -4 50 -13 110 -19 134 -6 24 -8 46
-5 50 8 7 13 0 79 -109 27 -44 51 -78 53 -76 3 2 -3 16 -13 31 -15 22 -15 30
-5 47 11 17 10 19 -6 16 -21 -4 -72 65 -118 161 -15 33 -31 58 -35 56 -4 -3
-1 -28 7 -57 14 -50 43 -185 43 -200 0 -3 -14 -11 -30 -17 l-30 -10 -79 162
c-43 89 -88 178 -101 197 l-22 35 6 -30z m121 -236 l66 -134 -33 -28 c-18 -15
-49 -41 -69 -57 l-37 -30 -6 168 c-4 92 -8 187 -11 212 -4 42 -3 44 11 24 8
-11 44 -81 79 -155z"/>
<path d="M2150 2896 c0 -5 14 -28 30 -53 49 -73 69 -118 90 -205 23 -97 38
-258 23 -258 -5 0 -20 22 -33 50 -13 27 -25 48 -27 46 -2 -1 6 -23 16 -47 l20
-44 -52 -6 c-29 -3 -71 -15 -94 -26 -29 -14 -43 -17 -46 -9 -3 6 -8 2 -13 -9
-4 -11 -18 -28 -31 -38 -13 -10 -21 -23 -17 -28 3 -6 0 -17 -8 -26 -11 -14
-11 -16 3 -11 13 5 16 2 11 -14 -8 -32 10 -16 53 47 21 30 43 55 49 55 7 0 12
-24 12 -58 2 -60 31 -152 33 -102 1 20 3 22 11 10 7 -12 11 -10 19 10 5 14 10
20 10 13 1 -7 7 -10 15 -7 8 3 16 -3 19 -15 7 -27 36 -27 87 -1 28 14 40 27
40 41 0 18 2 19 15 9 16 -13 21 -70 7 -70 -5 0 -14 -11 -20 -25 -25 -54 -101
-66 -149 -22 -13 11 -26 17 -30 13 -12 -12 35 -45 73 -52 61 -11 144 51 144
109 0 11 8 17 24 17 21 0 27 -8 40 -47 9 -27 13 -37 11 -23 -3 14 -8 52 -11
85 -4 33 -11 65 -16 71 -5 8 -3 14 7 18 23 8 44 -52 60 -169 8 -55 19 -116 24
-135 5 -19 15 -78 21 -131 l12 -97 -93 -122 c-92 -120 -210 -237 -333 -330
-52 -39 -60 -43 -84 -33 -296 121 -406 177 -454 233 -56 65 -288 499 -288 537
1 16 2 16 12 -2 13 -23 88 -100 88 -91 0 4 -7 17 -14 29 -8 12 -22 38 -30 57
-16 39 -7 62 29 74 18 5 23 0 32 -37 7 -24 27 -65 45 -92 36 -53 60 -70 51
-36 -7 27 5 27 35 -1 l23 -23 20 25 c18 23 20 24 33 7 7 -9 11 -29 9 -45 -4
-21 -2 -24 6 -12 15 21 14 43 -6 103 -27 86 -56 123 -110 143 -26 9 -53 23
-59 31 -10 11 -13 11 -18 -2 -3 -9 -18 -15 -36 -15 -17 0 -44 -7 -60 -15 -30
-15 -30 -15 -31 12 -3 153 8 284 37 403 26 108 29 110 35 25 5 -74 6 -71 5 31
-1 76 -4 110 -12 107 -11 -4 -45 -143 -65 -268 -6 -38 -13 -79 -15 -91 -3 -16
-18 -25 -69 -39 -36 -9 -65 -22 -65 -27 0 -6 8 -7 18 -3 9 4 38 10 65 12 l47
6 0 -96 c0 -88 -2 -97 -22 -111 -12 -9 -35 -16 -50 -16 -24 0 -27 -4 -34 -46
-3 -25 -4 -70 -1 -100 4 -37 1 -63 -9 -82 -7 -15 -14 -40 -14 -57 0 -16 -5
-49 -10 -73 -18 -78 -15 -452 5 -526 40 -155 89 -250 161 -317 68 -62 131
-108 138 -101 4 3 11 0 16 -7 11 -19 44 -6 36 15 -3 8 -2 12 3 9 5 -3 12 -1
16 5 7 11 -4 13 -47 10 -93 -6 -242 168 -292 340 -8 31 -18 100 -21 155 -3 55
-8 124 -10 153 -7 69 7 66 24 -5 7 -32 21 -73 32 -91 10 -18 19 -39 19 -45 0
-25 92 -168 145 -225 59 -64 138 -122 192 -140 29 -10 34 -9 44 9 6 12 8 23 5
26 -3 3 1 18 9 34 19 36 19 59 1 33 -14 -18 -15 -18 -47 11 -60 56 -69 65 -64
65 3 0 -8 20 -25 45 -35 51 -28 59 14 16 15 -16 36 -31 46 -34 14 -3 10 6 -16
40 -18 24 -38 61 -43 81 -14 54 -18 131 -6 134 6 1 27 -24 47 -54 21 -31 58
-73 84 -94 45 -37 46 -39 41 -84 -3 -25 -8 -56 -12 -70 -5 -18 -4 -21 3 -10 5
8 15 39 22 69 12 49 50 109 50 78 0 -7 6 -25 13 -40 9 -20 17 -25 32 -21 19 5
19 4 2 -6 -10 -7 -24 -9 -32 -6 -10 3 -12 0 -8 -11 4 -11 2 -14 -5 -9 -7 4
-12 1 -12 -8 0 -23 12 -49 19 -39 3 5 44 26 91 47 77 35 132 77 143 109 3 9
11 8 30 -2 32 -17 34 -27 7 -36 -33 -11 -108 -93 -121 -133 -6 -20 -17 -44
-23 -52 -18 -23 -47 -90 -38 -90 4 0 28 42 55 94 50 100 67 114 143 121 20 2
40 8 43 12 11 15 58 31 69 24 8 -5 6 -11 -7 -20 -17 -13 -17 -15 -3 -32 16
-18 17 -18 30 4 l13 22 -6 -23 c-4 -13 -1 -30 7 -39 11 -14 10 -15 -10 -9 -13
4 -21 3 -20 -2 5 -16 -62 -71 -80 -66 -12 4 -13 3 -4 -3 10 -7 7 -14 -9 -29
-20 -17 -22 -17 -16 -1 8 22 -15 33 -40 18 -15 -9 -13 -10 12 -5 29 5 29 5 11
-10 -11 -9 -23 -16 -28 -16 -4 0 -8 -5 -8 -12 0 -9 3 -9 12 0 7 7 16 12 21 12
15 0 -3 -19 -50 -51 -36 -25 -47 -29 -54 -18 -5 8 -9 10 -10 4 -4 -47 -8 -57
-25 -70 -10 -8 -25 -15 -31 -15 -7 0 -13 -4 -13 -10 0 -5 8 -10 18 -10 20 1
52 23 52 36 0 5 9 15 20 22 26 16 26 2 -1 -49 -11 -23 -16 -38 -11 -35 11 7
47 76 47 92 0 17 164 162 207 185 53 27 84 25 103 -8 l16 -28 -5 27 c-9 40 0
53 70 99 36 23 104 83 151 133 58 62 83 83 78 66 -18 -59 -69 -157 -121 -233
l-57 -82 51 49 c29 28 49 52 47 54 -3 3 13 37 34 76 45 84 67 150 76 229 4 31
10 57 15 57 4 0 11 26 15 58 4 31 14 77 22 100 9 28 12 58 8 83 -4 21 -8 62
-9 89 -4 81 -14 68 -20 -27 -3 -48 -11 -119 -17 -158 -6 -38 -15 -99 -20 -134
-12 -82 -35 -134 -86 -193 -55 -63 -119 -118 -110 -95 4 11 3 16 -4 12 -6 -4
-8 -13 -5 -21 3 -8 1 -14 -4 -14 -6 0 -24 -12 -40 -27 -16 -14 -43 -34 -59
-44 l-29 -17 -16 46 c-10 26 -28 70 -41 98 l-23 51 68 60 c69 61 99 94 223
242 58 69 71 80 84 69 13 -10 14 -6 9 38 -3 27 -8 87 -12 134 -3 47 -13 123
-21 170 -8 47 -17 105 -19 129 -6 44 -28 109 -64 186 -11 22 -35 92 -54 155
-19 63 -42 124 -51 135 l-17 20 7 -20 c52 -153 75 -230 75 -251 0 -13 9 -33
21 -45 24 -24 19 -35 -9 -20 -17 9 -62 110 -62 139 0 12 -71 168 -117 257 -30
57 -123 187 -123 171z m178 -323 c31 -62 72 -174 72 -197 0 -12 -7 -12 -37 -3
-21 6 -40 12 -41 13 -2 2 -8 49 -12 106 -5 57 -12 111 -15 121 -16 40 7 13 33
-40z m32 -267 c6 -8 10 -25 8 -38 -4 -32 -42 -32 -46 0 -7 46 14 66 38 38z
m-42 -75 c3 -8 -1 -12 -9 -9 -7 2 -15 10 -17 17 -3 8 1 12 9 9 7 -2 15 -10 17
-17z m-709 -145 c17 -20 2 -48 -23 -44 -29 4 -37 58 -8 58 11 0 25 -6 31 -14z
m-254 -146 c18 -36 45 -94 60 -129 14 -35 34 -76 43 -90 14 -21 14 -24 1 -14
-12 10 -15 8 -17 -15 -1 -21 0 -24 8 -12 8 12 10 11 9 -5 -1 -11 -5 -31 -9
-45 l-8 -25 -1 28 c-1 23 -4 27 -24 22 -46 -12 -61 -11 -78 3 -9 8 -15 23 -12
36 4 20 4 20 -10 3 -13 -16 -15 -12 -20 45 -3 35 -12 94 -21 133 -16 68 -13
135 5 135 5 0 9 12 9 28 l0 27 16 -30 c9 -16 31 -59 49 -95z m-98 63 c-3 -10
-5 -4 -5 12 0 17 2 24 5 18 2 -7 2 -21 0 -30z m380 11 c-3 -3 -12 -4 -19 -1
-8 3 -5 6 6 6 11 1 17 -2 13 -5z m-400 -186 c-3 -7 -5 -2 -5 12 0 14 2 19 5
13 2 -7 2 -19 0 -25z m14 -62 c16 1 16 -1 20 -92 1 -51 -2 -65 -19 -82 -18
-18 -19 -25 -10 -54 5 -18 13 -46 15 -63 3 -16 10 -36 15 -42 6 -7 7 -24 4
-37 -3 -14 -2 -28 4 -31 5 -3 10 -11 10 -16 0 -6 -5 -7 -10 -4 -14 9 -41 75
-35 85 3 5 0 10 -7 12 -6 2 -13 34 -15 79 -3 40 -9 76 -14 77 -5 2 -9 31 -9
65 1 59 1 61 15 37 8 -14 14 -33 15 -43 0 -10 4 -16 9 -12 14 8 1 107 -16 123
-7 7 -13 21 -13 30 0 12 4 9 13 -8 7 -14 20 -25 28 -24z m16 -208 c-3 -8 -6
-5 -6 6 -1 11 2 17 5 13 3 -3 4 -12 1 -19z m10 -110 c-3 -8 -6 -5 -6 6 -1 11
2 17 5 13 3 -3 4 -12 1 -19z m137 -128 c7 -20 18 -34 25 -32 10 2 12 -5 8 -25
-4 -15 -4 -22 -1 -15 4 9 15 0 32 -25 14 -21 28 -40 31 -43 4 -3 15 -18 25
-35 10 -16 30 -42 44 -57 14 -16 21 -28 14 -28 -6 0 -10 -9 -9 -20 1 -12 7
-18 14 -16 14 6 16 -4 7 -28 -3 -9 -12 -12 -22 -9 -13 6 -13 8 4 14 16 6 15 8
-7 8 -19 1 -26 6 -25 19 1 12 -7 17 -24 18 -44 1 -48 4 -56 27 -4 12 -15 28
-25 35 -11 7 -16 20 -13 30 5 14 4 14 -5 2 -15 -21 -25 -5 -11 19 13 25 7 27
-16 4 -16 -16 -16 -16 -10 5 6 17 4 21 -9 16 -22 -9 -15 13 14 43 18 19 21 27
11 33 -7 4 -10 12 -6 18 3 5 -1 15 -9 22 -17 15 -20 63 -4 58 7 -2 17 -19 23
-38z m536 -7 c14 -9 27 -18 29 -19 11 -9 -27 -31 -40 -24 -11 6 -15 3 -15 -10
0 -12 5 -16 16 -12 13 5 13 3 1 -11 -7 -9 -17 -14 -22 -11 -5 3 -9 -2 -9 -10
0 -10 -9 -16 -25 -16 -14 0 -25 1 -25 3 0 2 9 23 21 46 11 24 18 52 16 62 -6
24 19 25 53 2z m-607 -48 c-3 -9 -8 -14 -10 -11 -3 3 -2 9 2 15 9 16 15 13 8
-4z m8 -28 c-10 -9 -11 -8 -5 6 3 10 9 15 12 12 3 -3 0 -11 -7 -18z m774 3
c-3 -5 -15 -10 -26 -10 -11 0 -17 5 -14 10 3 6 15 10 26 10 11 0 17 -4 14 -10z
m-485 -237 c0 -7 -4 -13 -9 -13 -5 0 -8 12 -8 26 0 18 2 22 8 13 5 -8 9 -20 9
-26z"/>
<path d="M1280 1995 c0 -5 5 -17 10 -25 5 -8 10 -10 10 -5 0 6 -5 17 -10 25
-5 8 -10 11 -10 5z"/>
<path d="M1450 1220 c0 -5 5 -10 11 -10 5 0 7 5 4 10 -3 6 -8 10 -11 10 -2 0
-4 -4 -4 -10z"/>
<path d="M1503 1113 c-7 -2 -13 -8 -13 -13 0 -13 29 -20 36 -8 5 7 2 8 -6 3
-10 -6 -12 -4 -7 8 3 10 5 17 4 16 -1 0 -8 -3 -14 -6z"/>
<path d="M1902 1260 c0 -14 2 -19 5 -12 2 6 2 18 0 25 -3 6 -5 1 -5 -13z"/>
<path d="M1392 2860 c0 -14 2 -19 5 -12 2 6 2 18 0 25 -3 6 -5 1 -5 -13z"/>
<path d="M3500 2864 c0 -5 7 -22 15 -38 8 -15 21 -47 29 -70 8 -22 18 -50 22
-60 6 -15 4 -17 -7 -11 -11 7 -10 3 2 -15 9 -14 24 -26 33 -28 12 -3 3 24 -35
109 -50 113 -59 131 -59 113z"/>
<path d="M607 2829 c-9 -17 -17 -36 -17 -42 0 -7 9 6 21 27 24 45 21 58 -4 15z"/>
<path d="M1402 2790 c0 -19 2 -27 5 -17 2 9 2 25 0 35 -3 9 -5 1 -5 -18z"/>
<path d="M2301 2804 c0 -11 3 -14 6 -6 3 7 2 16 -1 19 -3 4 -6 -2 -5 -13z"/>
<path d="M2980 2806 c0 -2 7 -7 16 -10 8 -3 12 -2 9 4 -6 10 -25 14 -25 6z"/>
<path d="M3026 2767 c3 -10 9 -15 12 -12 3 3 0 11 -7 18 -10 9 -11 8 -5 -6z"/>
<path d="M3519 2745 c17 -33 31 -51 31 -40 0 6 -10 21 -21 35 -13 17 -17 18
-10 5z"/>
<path d="M973 2618 c-28 -57 -63 -132 -78 -168 -15 -36 -31 -70 -35 -75 -12
-14 -70 -167 -69 -180 0 -5 16 29 34 76 41 103 119 241 111 194 -25 -135 -37
-240 -42 -360 -5 -130 -4 -139 11 -120 13 16 15 35 10 100 -10 146 26 369 74
450 11 20 21 51 21 68 0 18 5 49 11 70 18 67 4 50 -48 -55z"/>
<path d="M1458 2537 c2 -100 1 -179 -2 -176 -4 3 -11 33 -16 65 -9 56 -9 56
-4 -21 l5 -81 -41 4 c-24 3 -40 0 -40 -7 0 -6 12 -8 32 -4 22 4 29 3 24 -5 -5
-8 0 -12 13 -12 14 0 22 -8 27 -27 3 -16 10 -39 15 -53 7 -21 8 -18 6 17 -1
24 2 44 8 46 6 2 5 9 -3 19 -9 12 -12 56 -10 169 l3 154 18 -58 c11 -32 21
-56 24 -54 4 4 -53 197 -61 204 -1 1 0 -80 2 -180z"/>
<path d="M1041 2674 c0 -11 3 -14 6 -6 3 7 2 16 -1 19 -3 4 -6 -2 -5 -13z"/>
<path d="M3607 2619 c7 -7 15 -10 18 -7 3 3 -2 9 -12 12 -14 6 -15 5 -6 -5z"/>
<path d="M2225 2610 c-3 -5 -1 -10 4 -10 6 0 11 5 11 10 0 6 -2 10 -4 10 -3 0
-8 -4 -11 -10z"/>
<path d="M490 2530 c-12 -45 -21 -83 -18 -85 3 -3 15 31 27 76 12 45 21 83 18
85 -2 2 -14 -32 -27 -76z"/>
<path d="M3590 2556 c39 -40 60 -49 60 -27 0 8 -86 71 -97 71 -3 0 13 -20 37
-44z"/>
<path d="M2603 2434 c4 -54 7 -136 7 -181 0 -67 3 -83 15 -83 10 0 15 10 15
33 0 17 1 74 3 125 1 50 -1 92 -5 92 -4 0 -10 23 -14 50 -4 28 -11 53 -17 57
-7 4 -8 -26 -4 -93z"/>
<path d="M3650 2506 c0 -3 108 -76 170 -114 64 -39 132 -73 136 -69 3 2 -19
17 -48 32 -29 15 -97 56 -151 91 -93 61 -107 69 -107 60z"/>
<path d="M1520 2496 c0 -12 41 -130 50 -144 8 -12 10 -12 7 -2 -24 86 -57 169
-57 146z"/>
<path d="M2030 2469 c0 -5 5 -7 10 -4 6 3 10 8 10 11 0 2 -4 4 -10 4 -5 0 -10
-5 -10 -11z"/>
<path d="M2650 2453 c1 -16 7 -46 15 -68 14 -38 59 -311 72 -437 3 -32 9 -58
13 -58 5 0 11 -24 15 -52 6 -43 23 -97 25 -78 0 3 7 23 14 45 l14 40 -1 -58
c-1 -39 -4 -53 -9 -40 -5 11 -7 4 -4 -21 3 -22 -1 -53 -8 -70 -7 -17 -24 -66
-36 -109 -15 -49 -27 -73 -32 -65 -5 9 -8 6 -8 -9 0 -42 -61 -165 -100 -203
-25 -24 -90 -110 -83 -110 4 0 46 41 92 90 46 50 87 90 90 90 4 0 7 -47 6
-103 0 -73 4 -109 13 -120 17 -20 9 -46 -23 -81 -13 -14 -36 -43 -52 -63 -15
-21 -51 -65 -79 -98 -28 -33 -87 -112 -132 -176 -85 -121 -156 -198 -220 -236
l-37 -23 -12 37 c-12 34 -12 30 -7 -47 5 -81 9 -112 35 -290 11 -76 28 -126
29 -85 0 12 23 48 51 80 112 131 175 240 245 420 20 53 71 173 164 385 43 97
90 182 119 213 14 16 61 55 104 88 66 49 81 57 98 49 25 -14 15 -34 -59 -115
-84 -93 -196 -273 -255 -410 -14 -33 -56 -130 -92 -215 -96 -223 -119 -267
-218 -415 -15 -22 -39 -58 -53 -80 -15 -22 -32 -43 -38 -47 -6 -4 373 -8 842
-8 l852 0 0 255 c0 140 -1 255 -2 255 -13 -1 -257 -32 -308 -39 -35 -6 -66 -9
-68 -7 -4 5 133 36 191 43 26 3 47 9 47 13 0 4 25 11 57 15 89 11 83 -2 83
175 l0 158 -52 7 c-75 11 -104 23 -271 113 -118 64 -173 87 -265 112 -198 53
-245 78 -357 187 -47 45 -65 72 -84 123 -13 36 -29 79 -35 95 -6 17 -27 57
-47 90 -52 85 -55 99 -24 119 23 15 25 23 25 84 0 37 -9 107 -19 155 -18 85
-31 120 -31 81 0 -10 -16 15 -36 56 -24 50 -36 92 -38 125 -1 32 -6 49 -14 48
-7 -2 -12 7 -12 20 0 35 -26 113 -32 97 -3 -8 -13 11 -22 43 -18 60 -36 76
-36 30z m103 -368 c4 -44 3 -59 -2 -40 -9 30 -14 122 -7 114 2 -2 6 -35 9 -74z
m62 -593 c-14 -26 -44 -68 -66 -92 -45 -50 -44 -48 41 93 48 80 69 79 25 -1z
m380 -341 c3 -5 -9 -20 -27 -32 -59 -40 -99 -82 -187 -198 -47 -62 -95 -126
-106 -142 -19 -28 -43 -41 -29 -16 33 58 198 291 234 330 54 59 99 82 115 58z
m411 -340 c-3 -5 -17 -11 -32 -14 -29 -5 -20 9 11 16 11 3 21 5 23 6 2 0 1 -3
-2 -8z m-227 -138 c-13 -15 -27 -30 -30 -33 -4 -3 -24 -25 -44 -50 -21 -25
-36 -40 -34 -33 7 20 112 143 123 143 5 0 -1 -12 -15 -27z m-208 -286 c-10 -9
-11 -8 -5 6 3 10 9 15 12 12 3 -3 0 -11 -7 -18z m-44 -87 c-7 -17 -13 -26 -15
-21 -3 10 15 51 22 51 3 0 -1 -14 -7 -30z m-48 -97 c-13 -26 -31 -68 -40 -93
-13 -34 -18 -39 -18 -21 -1 14 15 58 35 98 40 80 60 95 23 16z"/>
<path d="M461 2415 c-1 -11 -4 -31 -6 -45 l-6 -25 11 25 c6 13 9 33 7 45 -4
19 -4 19 -6 0z"/>
<path d="M3978 2423 c7 -3 16 -2 19 1 4 3 -2 6 -13 5 -11 0 -14 -3 -6 -6z"/>
<path d="M731 2364 c0 -11 3 -14 6 -6 3 7 2 16 -1 19 -3 4 -6 -2 -5 -13z"/>
<path d="M1096 2199 c-4 -96 -11 -232 -14 -304 -8 -153 -1 -399 10 -345 4 19
10 133 14 252 4 120 10 216 13 214 9 -6 1 313 -8 337 -4 12 -11 -56 -15 -154z"/>
<path d="M444 2316 c-3 -8 -4 -25 -2 -38 3 -17 5 -13 9 15 5 38 2 47 -7 23z"/>
<path d="M722 2300 c0 -19 2 -27 5 -17 2 9 2 25 0 35 -3 9 -5 1 -5 -18z"/>
<path d="M1590 2305 c16 -43 41 -87 46 -82 6 5 -43 107 -51 107 -2 0 0 -11 5
-25z"/>
<path d="M3978 2313 c7 -3 16 -2 19 1 4 3 -2 6 -13 5 -11 0 -14 -3 -6 -6z"/>
<path d="M705 2185 c-4 -36 -5 -68 -2 -71 3 -3 8 24 12 61 4 36 5 68 2 71 -3
3 -8 -24 -12 -61z"/>
<path d="M432 2145 c0 -55 3 -122 8 -150 6 -42 7 -33 8 55 0 58 -3 125 -7 150
-7 37 -9 27 -9 -55z"/>
<path d="M452 2200 c0 -14 2 -19 5 -12 2 6 2 18 0 25 -3 6 -5 1 -5 -13z"/>
<path d="M1640 2201 c0 -5 5 -13 10 -16 6 -3 10 -2 10 4 0 5 -4 13 -10 16 -5
3 -10 2 -10 -4z"/>
<path d="M1985 2179 c-4 -6 -5 -12 -2 -15 2 -3 7 2 10 11 7 17 1 20 -8 4z"/>
<path d="M776 2165 c-3 -9 -6 -22 -5 -28 0 -7 5 -1 10 12 5 13 8 26 5 28 -2 2
-6 -3 -10 -12z"/>
<path d="M988 2020 c-4 -30 -7 -84 -7 -120 l2 -65 8 80 c5 44 8 98 7 120 -3
38 -3 37 -10 -15z"/>
<path d="M695 1950 c4 -113 11 -163 30 -221 11 -34 13 -36 7 -9 -4 19 -7 86
-7 148 0 88 -2 105 -10 80 -9 -31 -10 -30 -16 32 -6 53 -6 47 -4 -30z"/>
<path d="M1202 2010 c0 -14 2 -19 5 -12 2 6 2 18 0 25 -3 6 -5 1 -5 -13z"/>
<path d="M3520 2010 c0 -5 5 -10 11 -10 5 0 7 5 4 10 -3 6 -8 10 -11 10 -2 0
-4 -4 -4 -10z"/>
<path d="M2671 1934 c0 -11 3 -14 6 -6 3 7 2 16 -1 19 -3 4 -6 -2 -5 -13z"/>
<path d="M451 1924 c0 -11 3 -14 6 -6 3 7 2 16 -1 19 -3 4 -6 -2 -5 -13z"/>
<path d="M461 1890 c0 -8 4 -22 9 -30 12 -18 12 -2 0 25 -6 13 -9 15 -9 5z"/>
<path d="M1613 1873 c9 -2 25 -2 35 0 9 3 1 5 -18 5 -19 0 -27 -2 -17 -5z"/>
<path d="M862 1780 c0 -14 2 -19 5 -12 2 6 2 18 0 25 -3 6 -5 1 -5 -13z"/>
<path d="M3467 1763 c-4 -3 -7 -13 -7 -21 0 -18 13 -7 16 13 2 17 1 18 -9 8z"/>
<path d="M1121 1718 c0 -33 2 -38 9 -23 12 28 12 65 0 65 -5 0 -10 -19 -9 -42z"/>
<path d="M3496 1734 c-4 -11 15 -14 107 -14 120 0 211 -11 319 -37 38 -9 71
-13 75 -9 12 12 -16 24 -86 37 -36 6 -71 16 -78 21 -7 6 -84 11 -172 13 -129
2 -161 0 -165 -11z"/>
<path d="M852 1705 c0 -16 2 -22 5 -12 2 9 2 23 0 30 -3 6 -5 -1 -5 -18z"/>
<path d="M1715 1710 c3 -5 8 -10 11 -10 2 0 4 5 4 10 0 6 -5 10 -11 10 -5 0
-7 -4 -4 -10z"/>
<path d="M1151 1664 c0 -11 3 -14 6 -6 3 7 2 16 -1 19 -3 4 -6 -2 -5 -13z"/>
<path d="M2580 1632 c0 -69 -25 -155 -70 -246 -54 -106 -50 -109 10 -7 48 83
53 100 75 259 3 25 1 42 -5 42 -5 0 -10 -22 -10 -48z"/>
<path d="M2145 1639 c-23 -15 -25 -19 -8 -14 15 4 22 1 25 -11 2 -11 7 -6 15
15 13 36 8 38 -32 10z"/>
<path d="M966 1525 c8 -86 13 -114 28 -144 7 -14 22 -57 34 -96 66 -222 98
-314 120 -348 37 -55 40 -36 5 30 -16 32 -38 85 -48 118 -10 33 -21 64 -26 69
-5 6 -9 19 -9 30 0 18 -19 79 -40 131 -5 11 -22 76 -39 145 -25 101 -29 114
-25 65z"/>
<path d="M1910 1560 c-12 -7 -10 -12 9 -29 32 -28 38 -26 37 9 -1 31 -17 38
-46 20z"/>
<path d="M832 1495 c0 -16 2 -22 5 -12 2 9 2 23 0 30 -3 6 -5 -1 -5 -18z"/>
<path d="M1081 1454 c0 -11 3 -14 6 -6 3 7 2 16 -1 19 -3 4 -6 -2 -5 -13z"/>
<path d="M2970 1442 c0 -5 7 -9 15 -9 8 0 12 4 9 9 -3 4 -9 8 -15 8 -5 0 -9
-4 -9 -8z"/>
<path d="M822 1245 c-2 -142 2 -201 17 -278 11 -54 22 -102 26 -105 4 -4 4 4
1 18 -20 89 -30 178 -36 350 l-6 195 -2 -180z"/>
<path d="M880 1270 c0 -8 4 -30 10 -49 5 -19 12 -73 16 -120 7 -90 14 -120 14
-58 0 71 26 39 59 -73 83 -278 90 -298 117 -340 36 -57 90 -110 113 -110 11 0
21 -4 21 -10 0 -18 -53 -11 -74 10 -12 10 -39 26 -61 35 l-40 16 30 -25 c52
-44 93 -59 142 -52 25 3 52 10 61 15 14 8 13 10 -8 15 -14 2 -37 7 -51 10 -39
8 -105 79 -140 152 -37 75 -34 92 6 34 15 -22 29 -40 31 -40 1 0 -18 38 -43
85 -35 68 -82 188 -83 214 0 2 35 -32 78 -75 62 -65 94 -88 167 -123 50 -25
117 -54 150 -66 33 -12 59 -27 57 -34 -1 -7 13 4 33 23 45 45 45 66 1 32 -19
-14 -37 -26 -40 -26 -24 0 -169 81 -199 112 -21 21 -43 38 -48 38 -5 0 -9 5
-9 10 0 6 -7 10 -16 10 -8 0 -12 -4 -9 -10 3 -5 2 -10 -4 -10 -5 0 -46 37 -90
82 -82 83 -141 178 -156 247 -9 43 -34 101 -35 81z"/>
<path d="M1732 1200 c0 -14 2 -19 5 -12 2 6 2 18 0 25 -3 6 -5 1 -5 -13z"/>
<path d="M2030 1150 c0 -5 4 -10 9 -10 6 0 13 5 16 10 3 6 -1 10 -9 10 -9 0
-16 -4 -16 -10z"/>
<path d="M2140 1140 c0 -5 5 -10 10 -10 6 0 10 5 10 10 0 6 -4 10 -10 10 -5 0
-10 -4 -10 -10z"/>
<path d="M2069 1100 c-23 -22 -39 -43 -35 -48 5 -4 20 8 35 26 15 17 33 32 39
32 7 0 12 7 12 15 0 22 -4 19 -51 -25z"/>
<path d="M2141 1104 c0 -11 3 -14 6 -6 3 7 2 16 -1 19 -3 4 -6 -2 -5 -13z"/>
<path d="M2297 1008 c-4 -16 -14 -28 -23 -28 -8 0 -17 -7 -20 -15 -3 -8 -21
-19 -40 -25 -60 -20 -64 -29 -63 -153 1 -82 3 -103 9 -77 5 19 8 70 8 113 0
43 1 79 3 81 16 14 109 51 109 43 0 -13 51 1 70 19 12 12 10 12 -18 2 -35 -14
-51 -6 -33 16 7 8 11 23 9 33 -3 13 -6 11 -11 -9z"/>
<path d="M2184 964 c-19 -15 -19 -15 1 -6 11 5 27 12 35 15 13 5 13 6 -1 6 -8
1 -24 -6 -35 -15z"/>
<path d="M1798 851 c-27 -53 -48 -102 -48 -108 0 -6 -10 -24 -23 -40 -13 -15
-32 -44 -43 -63 -10 -19 -22 -37 -25 -40 -11 -10 -59 -85 -59 -93 0 -15 27 18
61 74 18 30 43 68 55 84 26 36 136 265 132 276 -2 4 -24 -36 -50 -90z"/>
<path d="M915 912 c6 -43 36 -145 40 -140 2 2 -7 42 -21 88 -13 47 -22 70 -19
52z"/>
<path d="M2125 900 c-8 -16 -14 -46 -14 -67 l1 -38 8 46 c4 26 13 56 19 68 7
11 9 21 7 21 -3 0 -12 -13 -21 -30z"/>
<path d="M2100 766 c0 -14 -6 -31 -13 -38 -6 -7 -25 -33 -41 -57 -15 -24 -47
-64 -70 -89 l-41 -45 42 29 c23 16 42 35 43 43 0 7 14 29 30 48 17 18 30 39
30 45 0 7 3 8 8 3 4 -6 6 -84 2 -174 l-5 -165 -65 -16 c-36 -9 -90 -31 -121
-48 -31 -18 -66 -32 -78 -32 -12 0 -31 -5 -43 -11 -28 -15 -31 -8 -13 34 21
50 18 59 -5 17 -23 -43 -68 -95 -76 -88 -17 17 -4 90 23 135 27 44 72 145 59
132 -3 -3 -20 -32 -37 -65 -17 -32 -38 -66 -45 -75 -8 -8 -14 -19 -14 -24 0
-4 -20 -40 -44 -80 -39 -65 -53 -94 -61 -129 -8 -39 -20 -74 -33 -94 l-14 -22
302 0 302 0 -6 33 c-12 54 -18 474 -9 620 4 75 5 137 1 137 -5 0 -8 -11 -8
-24z m-430 -530 c0 -33 -31 -86 -50 -86 -26 0 -25 4 5 57 26 43 45 56 45 29z
m-62 -131 c-10 -22 -13 -23 -20 -10 -11 18 -2 35 17 35 12 0 12 -5 3 -25z"/>
<path d="M1892 764 c-20 -21 -92 -208 -91 -235 0 -13 7 0 15 29 7 29 31 90 53
135 22 45 39 83 38 83 -1 1 -8 -4 -15 -12z"/>
<path d="M1398 753 c7 -3 16 -2 19 1 4 3 -2 6 -13 5 -11 0 -14 -3 -6 -6z"/>
<path d="M1409 624 c-13 -15 -18 -25 -10 -22 13 4 49 48 39 48 -2 0 -15 -12
-29 -26z"/>
<path d="M1010 605 c13 -14 26 -25 28 -25 3 0 -5 11 -18 25 -13 14 -26 25 -28
25 -3 0 5 -11 18 -25z"/>
<path d="M2163 575 c0 -22 2 -30 4 -17 2 12 2 30 0 40 -3 9 -5 -1 -4 -23z"/>
<path d="M1328 506 c-16 -19 -28 -38 -28 -42 0 -4 14 10 30 31 28 35 34 45 28
45 -2 0 -15 -16 -30 -34z"/>
<path d="M1860 495 c-53 -39 -57 -41 -63 -17 -3 9 -5 1 -6 -18 -1 -19 -3 -53
-6 -75 l-5 -40 11 44 c11 45 25 60 102 114 22 15 34 27 26 26 -8 0 -34 -15
-59 -34z"/>
<path d="M1270 435 c-7 -9 -11 -17 -9 -20 3 -2 10 5 17 15 14 24 10 26 -8 5z"/>
<path d="M1544 418 c-9 -18 -20 -35 -23 -38 -17 -14 -91 -144 -90 -160 0 -9 4
-6 9 7 5 11 24 43 43 70 48 68 90 143 84 149 -3 3 -13 -9 -23 -28z"/>
<path d="M1216 363 c-6 -14 -5 -15 5 -6 7 7 10 15 7 18 -3 3 -9 -2 -12 -12z"/>
<path d="M1136 272 l-19 -27 26 24 c28 26 32 31 20 31 -5 0 -17 -13 -27 -28z"/>
<path d="M1081 214 c-7 -8 -11 -17 -9 -20 3 -2 13 5 23 16 10 11 14 20 9 20
-5 -1 -15 -8 -23 -16z"/>
<path d="M1405 189 c-4 -6 -5 -12 -2 -15 2 -3 7 2 10 11 7 17 1 20 -8 4z"/>
<path d="M880 10 c-9 -6 -10 -10 -3 -10 6 0 15 5 18 10 8 12 4 12 -15 0z"/>
</g>
</svg>
